<?xml version="1.0" encoding="UTF-8" standalone="no"?>
<!-- Created with Inkscape (http://www.inkscape.org/) -->
<svg
   xmlns:svg="http://www.w3.org/2000/svg"
   xmlns="http://www.w3.org/2000/svg"
   version="1.0"
   width="661.88977"
   height="248.03149"
   id="svg3633">
  <defs
     id="defs3635" />
  <g
     transform="translate(-370.87372,-592.27185)"
     id="layer1">
    <g
       transform="translate(17.731885,17.803192)"
       id="g19274">
      <path
         d="M 449.88901,749.95585 L 469.45714,749.95585 C 497.94223,749.95585 504.38236,731.13087 504.38236,696.99815 C 504.38236,661.70143 497.19921,643.47092 469.20951,643.47092 L 370.87372,643.44612 L 370.87372,595.78921 L 486.5483,595.78921 C 545.25243,595.78921 586.61791,615.80313 586.61791,699.05414 C 586.61791,776.73193 542.03244,801.15492 483.08041,801.15492 L 370.87372,801.15492 L 370.87372,680.67495 L 449.88901,680.67495"
         style="font-size:5px;letter-spacing:-0.001;word-spacing:0;fill:#000000;fill-rule:nonzero;stroke:none;font-family:fnt3, &quot;FrutigerLT&quot;, Arial"
         id="path16989" />
      <path
         d="M 603.70893,595.78921 L 779.57396,595.78921 L 779.57396,645.22954 L 682.72435,645.22954 L 682.72435,678.47055 L 776.6016,678.47055 L 776.6016,727.88607 L 682.72435,727.88607 L 682.72435,801.15492 L 603.70893,801.15492"
         style="font-size:5px;letter-spacing:-0.001;word-spacing:0;fill:#000000;fill-rule:nonzero;stroke:none;font-family:fnt3, &quot;FrutigerLT&quot;, Arial"
         id="path16991" />
      <path
         d="M 997.29972,793.50105 C 970.30068,801.45216 944.54019,804.69696 912.33957,804.69696 C 844.22282,804.69696 789.48184,768.78082 789.48184,695.53677 C 789.48184,626.677 846.45216,592.27185 912.33957,592.27185 C 950.73268,592.27185 969.30989,595.19474 989.12565,599.90091 L 989.12565,655.2365 C 977.97935,648.7469 956.92504,643.47092 934.87994,643.47092 C 895.7438,643.47092 869.98331,663.1628 869.98331,700.54032 C 869.98331,728.77778 881.37751,753.49788 912.83497,753.49788 C 918.53193,753.49788 924.97205,753.49788 929.67837,751.73926 L 929.67837,696.99815 L 997.29972,696.99815"
         style="font-size:5px;letter-spacing:-0.001;word-spacing:0;fill:#000000;fill-rule:nonzero;stroke:none;font-family:fnt3, &quot;FrutigerLT&quot;, Arial"
         id="path16993" />
    </g>
  </g>
</svg>
